<?xml version="1.0" encoding="UTF-8"?>
<svg xmlns="http://www.w3.org/2000/svg" xmlns:xlink="http://www.w3.org/1999/xlink" width="30pt" height="30pt" viewBox="0 0 30 30" version="1.1">
<g id="surface2581691">
<path style=" stroke:none;fill-rule:nonzero;fill:rgb(80%,80%,80%);fill-opacity:1;" d="M 13.601562 6.601562 C 9.742188 6.601562 6.601562 9.742188 6.601562 13.601562 C 6.601562 17.457031 9.742188 20.601562 13.601562 20.601562 C 15.277344 20.601562 16.816406 20.003906 18.027344 19.015625 L 22.203125 23.195312 C 22.378906 23.378906 22.640625 23.453125 22.886719 23.386719 C 23.132812 23.324219 23.324219 23.132812 23.386719 22.886719 C 23.453125 22.640625 23.378906 22.378906 23.195312 22.203125 L 19.015625 18.027344 C 20.003906 16.816406 20.601562 15.277344 20.601562 13.601562 C 20.601562 9.742188 17.457031 6.601562 13.601562 6.601562 Z M 13.601562 8 C 16.699219 8 19.199219 10.5 19.199219 13.601562 C 19.199219 16.699219 16.699219 19.199219 13.601562 19.199219 C 10.5 19.199219 8 16.699219 8 13.601562 C 8 10.5 10.5 8 13.601562 8 Z M 13.601562 8 "/>
</g>
</svg>
